<svg width="906" height="738" viewBox="0 0 906 738" fill="none" xmlns="http://www.w3.org/2000/svg">
<g style="mix-blend-mode:multiply">
<path d="M1115.05 315.32L1114.2 313.81L1113.77 313.05L1113.75 313.02L1044.55 215.14L1044.89 215.3L1043.21 213.22L1043.24 213L1042.93 212.86L1042.04 211.6L1042.02 211.74L997.78 156.92L995.65 154.79L995.21 154.35H995.2L986.68 146.2L954.96 119.69L954.55 119.38L954.45 119.3L941.66 110.12L935.67 105.9L935.62 105.87L935.5 105.78L928.44 101.05L915.04 92.38L915.02 92.37L910.13 89.33L906.59 87.18L904.43 85.9L893.76 79.66L893.66 79.6L893.47 79.49L890.33 77.7L886.73 75.69L882.76 73.54L874.48 69.15L870.56 67.1L864.03 63.78L861.05 62.3L860.43 62L849.18 56.62L841.49 53.1L841.16 52.95L831.3 48.64H831.29L824.68 45.9L818.12 43.21H818.11L818 43.16L817.66 43.02H817.63L817.62 43L809.29 39.79H809.28L797.11 35.31L793.98 34.18L788.93 32.43L783.37 30.58L781.62 30.02L769.24 26.13H769.22L756.45 22.45H756.43L743.67 19.05H743.65L734.81 16.92L726.26 14.92L725.76 14.81L724.88 14.62L724.64 14.57L714.3 12.41H714.29L712.46 12.05L698.99 9.54997H698.98L695.49 8.94997L687.35 7.64996H687.34L677.63 6.28996L670.94 5.37997H670.93L664.55 4.62997L663.67 4.52997V4.54997L663.33 4.48997L661.19 4.26997L660.27 4.16997L659.57 4.09998L656.91 3.83997L652.11 3.38997L641.49 2.45998L625.73 1.51997L610.11 0.969971L608.84 0.939972L607.67 0.929962L600.66 0.899963H592.17H592.16L585.06 0.999969V1.24997L580.14 1.10997H579.69L578.16 1.15997L577.61 1.17996L572.41 1.39996L565.33 1.71997L564.99 1.73997H564.89L554.49 2.41997L551.68 2.64996L533.57 4.32997L529.57 4.73997L512.77 6.90997L512.69 6.91997H512.59L512.56 6.93997H512.55L512.08 7.00996L499.52 8.95998H499.5L491.65 10.35L485.84 11.41L485.89 11.36L483.77 11.79L483.6 11.82L472.61 14.07L472.41 14.12H472.4H472.37L461.32 16.6H461.31L459.92 16.94L447.34 20.05H447.32L436.2 23.11L427.05 25.75L426.78 25.83L426.55 25.9L426.48 25.92L426.42 25.94L426.18 26.01L422.98 26.95L422.42 27.11H422.41L415.8 29.21L409.38 31.28L409.27 31.31H409.26L409.09 31.37L396.24 36.74L396.21 36.75L396.06 36.83L394.74 37.5L394.33 37.71L392.81 38.5L392.63 38.59L388.86 40.65L388.52 40.85L387.25 41.57L382.2 44.53L381.85 44.48L381.76 44.75L307.61 78.53L306.79 78.96L306.24 79.25H306.23L278.66 94.63L278.56 94.34L277.82 95.1L277.4 95.33L277.43 95.43L163.7 190.77L160.16 191.59L159.73 192.06L153.14 199.29L152.75 199.73L145.53 207.97L144.66 209.01L136.3 218.96L136.01 219.32L131.58 224.87L131.42 225.08L131.11 225.46L126.09 231.83L120.54 239.06L120.5 239.11L113.87 248.12L113 249.35L105.7 259.73L105.69 259.74V259.76L99.7599 268.54L98.6498 270.25L91.8098 280.89L90.9799 282.24L91.0699 281.92L88.3899 286.41L88.2299 286.67V286.69L83.5798 294.47L78.9398 302.38L78.9199 302.41L73.5699 311.99L72.8698 313.3L67.0699 324.21L67.0298 324.28L66.4898 325.33L62.5198 333.17L61.4698 335.34L56.1399 346.45L56.0699 346.61L51.6098 356.42L51.0798 357.65L46.2299 368.91L46.1699 369.06L43.1798 376.48L42.8398 377.32L42.6198 377.88L40.3199 383.69L37.2899 391.64V391.66L36.6599 393.35L36.4799 393.84L32.5898 404.92L31.5198 408.01L31.4998 407.99L30.9998 409.5L30.9099 409.75L29.2899 414.66L29.2498 414.78L29.2098 414.9L26.9499 422.19L26.6198 423.28L26.4898 423.71L24.6898 429.65L22.2998 437.88V437.92L22.2899 437.93L19.3898 448.73L19.1698 449.61L16.2598 461.36V461.39V461.41L13.7999 472.3L13.6098 473.23L11.1798 485.09V485.13L9.32985 495.11L9.00984 497.03L7.05984 509.01L6.32985 513.91L5.68985 518.55L5.32985 521.45L3.82985 533.88L3.45985 537.28L3.04985 541.3L2.60985 546.33L1.63985 558.76V558.78L1.01985 569.66L0.949844 571.25L0.499847 583.63L0.449844 585.84L0.339844 594.42V596.09L0.409851 608.48V608.53L0.709854 619.5L0.769852 620.9L1.35985 633.28V633.36V633.37L2.08984 643.37L2.13985 644.07V644.13L2.56985 649.41L3.34985 657.98V658.01V658.02L4.54985 668.81L4.74985 670.36L6.37985 682.65L6.59985 684.16L6.61984 684.3L7.93985 692.88L8.33984 695.23L10.4398 707.19V707.21L11.1098 710.77L12.0598 715.6L12.8698 719.45L15.5298 731.64L18.0699 742.26L18.4698 743.82L21.6399 755.94L22.0099 757.3L24.6498 766.56L25.0699 767.98L28.4799 779.12V779.17L28.4998 779.18L33.7599 794.97L33.7698 795.02L35.9598 801.24V801.28H35.9799L36.4199 802.47H36.4298L36.4898 802.66V802.69V802.71L37.4898 805.42L37.5598 805.61L37.8698 806.46L37.8899 806.51L40.5099 813.34L41.2998 815.37L44.7798 824.25L46.3598 828.14L50.2599 837.33L50.6399 838.22L55.5298 849.14L55.7098 849.53V849.56L55.7299 849.58L60.5798 859.82L61.2198 861.12L66.5198 871.73L66.5598 871.82L66.5798 871.86V871.87L70.5898 879.47L78.3199 893.6L80.7899 897.95L83.5498 902.65L84.5598 904.32L91.0198 914.93V914.95L100.83 930.06L102.63 932.79L102.65 932.81L102.72 932.93L102.74 932.97L103.15 933.58L103.23 933.7L104.62 935.74L111.35 945.36L111.76 945.93L119.14 956.03L119.18 956.08V956.1L124.71 963.28L124.77 963.35L125.24 963.96L129.24 969.08L134.57 975.76V975.77L136.59 978.23H136.56L137.49 979.33L137.73 979.62L143.85 986.82L150.24 994.23L150.31 994.31L157.78 1002.58L160.39 1005.38L166.62 1012.01L166.63 1012.02H166.64L166.7 1012.09L166.72 1012.11L174.48 1020.04L175.11 1020.67L183.69 1029.08L183.78 1029.18L183.83 1029.23L183.85 1029.25L192.34 1037.22L192.86 1037.71L201.58 1045.59H201.59L213.01 1055.39L212.93 1055.35L214.06 1056.29L214.19 1056.4L217.54 1059.19L219.14 1060.52L220.1 1061.32L221.93 1062.81L228.36 1067.92L229.66 1068.93L239.32 1076.31H239.33L239.34 1076.33L248.03 1082.69H248.04L249.27 1083.57L259.28 1090.59L263.36 1093.38L267.99 1096.46L269.53 1097.46L279.91 1104.11L282.99 1106.04L289.79 1110.17L290.5 1110.59L301.13 1116.81L301.3 1116.91L310.76 1122.19L312.14 1122.94L323.2 1128.81L323.27 1128.85L323.47 1128.95H323.49V1128.97L333.96 1134.24H333.97L334.53 1134.52L345.89 1139.95L346.19 1140.1L353.27 1143.28L361.57 1146.94L369.08 1150.15L369.11 1150.16H369.13L379.6 1154.39H379.61L381.02 1154.93L392.99 1159.46H393L405.26 1163.78H405.27L414.58 1166.86L418.8 1168.22L419.27 1168.37L430.79 1171.85H430.8L431.32 1172L438.41 1173.98L451.22 1177.43H451.24L457.56 1178.98L459.57 1179.45L463.95 1180.45L465.6 1180.81L466.26 1180.95L470.51 1181.85L472.72 1182.3L477.66 1183.26L479.13 1183.54H479.14L485.55 1184.68L487.16 1184.95L492.01 1185.73L494.27 1186.07L498.58 1186.69L500.91 1187.01L505.46 1187.59L507.26 1187.81H507.37L507.38 1187.83L515.19 1188.69L516.96 1188.86L524.19 1189.51L525.12 1189.59H525.13L533.06 1190.14L534.93 1190.25L542.99 1190.65H543L549.61 1190.86L551.78 1190.9L556.23 1190.97L558.79 1190.99H562.86L565.56 1190.97L569.51 1190.91L572.25 1190.85L576.22 1190.73L578.88 1190.64L582.85 1190.46L583.76 1190.91V1190.66L589.1 1192.01L585.71 1190.32L590.32 1190.04L592.11 1189.93L598.85 1189.41H598.86C671.05 1182.69 753.56 1172.01 807.15 1157.24C808.17 1156.96 809.17 1156.68 810.17 1156.4L810.51 1156.3L810.53 1156.26L820.79 1152.17L828.14 1149.17L833.48 1146.91L833.63 1146.84H833.64L849.16 1139.89H849.17L849.49 1139.74L864.47 1132.5L881.41 1123.72L881.67 1123.58H881.68L887.24 1120.52L887.69 1120.26L892.59 1117.47L900.64 1112.79L903.46 1111.11L908.23 1108.27L909.78 1107.33L911.94 1106.01H911.95L926.13 1096.91H926.15L938.19 1088.76L939.13 1088.1L939.95 1087.53L944.69 1084.19L944.91 1084.03H944.92L955.03 1076.55L962.06 1071.25H962.07L972.23 1063.22H972.24L973.15 1062.46L984.08 1053.39L986.75 1051.1L993.45 1045.22L1000.57 1038.74L1004.54 1035.11L1006.03 1033.71L1013.14 1026.91L1014.18 1025.88L1023.69 1016.39L1025.07 1014.97L1030.97 1008.81L1032.73 1006.91L1041.64 997.19H1041.65L1049.17 988.61L1052.21 985L1058.43 977.58L1058.48 977.52L1060.27 975.33L1065.4 968.91L1066.45 967.55L1074.27 957.38L1074.29 957.36L1075.62 955.58L1080.78 948.54L1081.8 947.09L1089.11 936.7L1093.34 930.4L1095.69 926.86V926.94L1097 924.9L1097.21 924.58L1098.82 922.09L1102.97 915.59L1108.75 906.17L1109.51 904.87L1115.85 894.04L1116.21 893.4L1120.75 885.29L1121.89 883.17L1126.2 875.07L1127.91 871.82L1128.21 871.25L1133.28 861.16L1138.63 850L1138.7 849.84L1143.16 840.04L1145.15 835.45L1148.54 827.55V827.52L1148.6 827.39L1151.89 819.24L1153.97 813.98L1157.48 804.79L1161.24 794.3L1161.57 793.31L1165.44 781.79V781.77L1168.77 771.12L1169.05 770.18L1172.44 758.54V758.52L1175.2 748.3L1175.56 746.83L1178.48 735.05V735.03L1179.87 728.93L1181.22 722.85V722.83V722.81V722.78L1183.47 708.16V708.14L1184.05 703.71L1185.29 692.64V692.59V692.57L1185.92 685.75L1185.95 685.8L1186.14 683.4L1186.16 683.15L1186.84 674.64L1186.31 671.7L1190.88 577.69L1190.75 575.13L1190.73 574.7V574.66L1165.5 432.97L1114.6 315.35L1115.05 315.32ZM973.07 478.03L968.51 492.69L960.66 444.52V444.5L960.52 443.82L959.81 440.17V440.14L945.95 380.86L945.85 380.64L834.44 143.38L836.08 144.56L966.57 260.77L1005.56 306.82L1005.52 306.9L1005.65 307.01L973.88 475.35L973.06 478.04L973.07 478.03ZM1047.84 721.56L1015.78 934.36L978 887.77L976 886.28L975.85 886.17L975.82 886.15L942 865.79L942.09 865.5L942.14 865.48L942.2 865.17V865.15L942.64 863.72L942.45 863.81L974.31 687.91L1046.19 716.95L1047.85 721.57L1047.84 721.56ZM381.68 1138.3L411.97 1103.6L414.16 1106.09L577.05 1187.47L384.14 1138.97L381.68 1138.29V1138.3ZM231.29 907.05L229.11 904.63L225.39 900.45L224 898.88L219.27 893.44L218.8 892.9L144.27 789.83L143.04 787.81L143.46 766.16L158.52 657.14L158.84 655.78L213.43 729.35L213.99 733.87L214.04 734.27V734.34L299.55 973.85L238.15 914.57L237.1 913.43L233.53 909.54L231.27 907.06L231.29 907.05ZM39.1399 493.61L57.1098 444.95L71.5198 614.88C71.1798 615.05 70.6498 615.33 69.9398 615.69C65.4698 618 54.1098 623.8 42.5598 629.39C36.7898 632.18 30.9598 634.93 25.9298 637.15C20.8998 639.37 16.6498 641.07 14.0898 641.78C14.0698 641.78 14.0598 641.78 14.0398 641.79C13.2398 642.01 12.6099 642.12 12.2399 642.13C12.2199 642.13 12.1898 642.13 12.1698 642.13L37.9799 497.19L39.0699 493.8L39.1399 493.6V493.61ZM58.7798 437.89L59.9799 429.49L60.6198 425.3L60.9499 423.17L76.4398 355.53V355.5L78.6399 348.44L79.2998 346.4L81.0399 341.17L91.9298 312.01L92.5999 310.39L94.6399 305.56L96.6699 300.89L97.5198 298.99L152.43 210.84L146.23 229.97L147.76 264.99L148.95 269.39L147.2 271.94L143.36 277.56L58.7899 437.86L58.7798 437.89ZM448.24 56.37L635.98 98.39L828.17 141.4L721.7 176.61L654.18 204.23L605.7 224.06L605.73 223.81L604.97 224.27L487.39 95.53L487.37 95.51L448.23 56.37H448.24ZM832.13 141.82L832.46 142.66L832.51 142.59L851.13 182.24L831.8 141.75L832.12 141.82H832.13ZM944.61 381.32L958.43 440.44L959.14 444.08L959.27 444.74L967.41 494.69L857.65 347.75L857.14 347.19L855.09 344.94H855.08L824.16 312.4L824.34 312.14L824 312L835.58 194.2L833.44 166.44L831.79 144.97L944.61 381.31V381.32ZM848.05 1056.49L894.47 982.72V982.69L894.8 982.09L897.28 977.29L898.17 975.54L900.17 971.55L901.44 968.98L903.07 965.64L904.6 962.44L905.94 959.62L907.64 955.97L908.76 953.54L910.55 949.59L911.52 947.43L913.34 943.3L914.2 941.33L916.03 937.05L916.78 935.27L918.64 930.8L919.25 929.32L921.19 924.53L921.58 923.56L923.68 918.24V918.22V918.2L941.53 867.12L975.03 887.28L975.12 887.35L977.01 888.75L1015.21 935.87L848.03 1056.45L848.05 1056.49ZM940.36 866.25L922.38 917.75L920.28 923.06L919.89 924.02L917.95 928.81L917.34 930.28L915.48 934.75L914.73 936.52L912.9 940.79L912.04 942.75L910.23 946.87L909.26 949.03L907.48 952.97L906.36 955.39L904.66 959.03L903.32 961.84L901.79 965.03L900.16 968.36L898.89 970.93L896.89 974.91L896 976.65L893.53 981.44L893.23 982.01L846.07 1056.96L847.33 1037.3L837.37 1001.28L836.96 1000.47L836.64 999.84L836.61 999.79L809.99 963.86L786.99 942.67L789.29 941.37L805.35 932.29L856.57 905.16L906.09 881.44L908.54 880.33L909.46 879.91L940.34 866.23L940.36 866.25ZM507.6 955.67L423.27 807.37L541.33 710.85L541.19 711.9L542.41 710.18L601.24 753.33L604.93 757.13L508.74 955.56L507.59 955.67H507.6ZM73.5598 616.64L157.69 654.52L157.51 655.28L157.15 656.86L142.08 766.02L141.72 784.53L133.59 764.5L73.5798 616.64H73.5598ZM72.9099 614.8L65.8998 532.13L58.3298 442.87H58.3598L58.3499 442.78H58.3199V442.77H58.3499L93.4598 456.12H93.5099L144.23 468.09L145.2 468.28L149.99 469.21L151.09 469.42L155.88 470.32L156.16 470.37H156.17L221.25 481.19L212.82 498.75L158.09 653.15L72.8998 614.79L72.9099 614.8ZM149.32 271.31L172.27 387.98L172.68 388.99L175 394.57L175.67 396.13L177.97 401.4L178.69 403.01L181.16 408.43L181.74 409.68L184.57 415.62L184.87 416.25V416.27L203.56 451.35V451.37L203.74 451.65L207.36 457.84L209.16 460.87L210.38 462.89L220.85 479.71L202.93 476.73L156.4 469L156.11 468.95L151.32 468.05L150.23 467.84L145.44 466.91L144.51 466.73L93.8499 454.79L58.4898 441.36L144.51 278.31L148.3 272.76L149.29 271.32L149.32 271.31ZM357.23 375.85L517.69 278.74L603.95 226.54L561.36 555.93L541.71 707.93L223.48 480.64L330.2 397.04L357.24 375.86L357.23 375.85ZM854.05 345.89L856.09 348.13L856.56 348.64L967.41 497.04L967.5 497.19L788.79 572.42L788.69 572.47L778.9 577.13H778.89L705.07 614.15H705.06L699.57 617.05L696.4 618.72L555.77 699.88H555.75L553.39 701.37L544.87 706.71L823.33 313.55L854.06 345.88L854.05 345.89ZM215.41 733.67L214.97 730.13L421.27 807.54L321.9 946.37L301.46 974.93L215.45 733.99L215.41 733.67ZM214.78 728.55L214.21 723.76L214.14 723.15L222.98 481.99L435.94 634.1L541.11 709.22L422.25 806.4L214.78 728.55ZM543.33 706.47L605.43 226.17L822.16 312.78L543.32 706.46L543.33 706.47ZM543.52 709.24L554.14 702.59L556.49 701.12L697.07 619.98L700.22 618.31L705.71 615.42L779.51 578.41L789.29 573.76L789.36 573.73L967.23 498.86L883.38 703.07L606.09 754.76L605.58 755.8L602.16 752.28L543.5 709.25L543.52 709.24ZM607.06 756L882.76 704.6L785.58 941.28L606.64 756.86L607.06 755.99V756ZM785.58 941.29L882.76 704.6L785.58 941.29ZM834.17 194.19L822.65 311.46L606.73 225.17L722.19 177.93L830.17 142.21L834.17 194.18V194.19ZM214.15 499.3L221.49 484.01L212.72 723.21L212.8 723.92L213.11 726.51L159.3 654.01L214.14 499.3H214.15ZM422.31 808.51L302.72 975.58L422.31 808.51ZM422.31 808.51L506.07 955.83L302.72 975.58L422.31 808.51ZM510.4 955.41L605.99 758.21L783.96 941.64L721.49 934.9L510.4 955.4V955.41ZM908.91 878.65L907.99 879.07L905.53 880.19H905.52L855.98 903.92L804.73 931.06L787.26 940.93L796.13 919.33L884.43 704.28L972.91 687.79L940.9 864.48L908.93 878.64L908.91 878.65ZM885.05 702.75L968.1 500.5L973.05 686.35L885.05 702.75ZM446.08 56.21L486.37 96.51L584.76 204.24L602.88 224.09L599.17 223.37L593.67 222.3L338.14 190.42L446.08 56.22V56.21ZM337.04 191.99L337.18 192.09L337.29 191.73L593.44 223.69L598.9 224.75L602.92 225.53L356.44 374.7L223.61 478.76L254.93 373.62L305.41 253.33L308.56 246.87L308.93 246.12L322.32 219.64L322.93 218.47L326.09 212.44L337.04 191.99ZM324.85 211.78L321.69 217.82L321.08 218.99L307.68 245.48L307.31 246.25L304.14 252.76L253.62 373.14L222.09 478.98L253.62 373.14L222.09 478.98L211.63 462.19L210.41 460.17L208.61 457.15L204.99 450.97L204.83 450.7L186.17 415.64L185.87 415.02L183.04 409.09L182.46 407.85L179.99 402.44L179.27 400.84L176.97 395.58L176.3 394.03L173.98 388.47L173.62 387.6L150.48 269.96L276.33 213.11L335.3 192.24L324.83 211.79L324.85 211.78ZM12.7498 643.5C13.2398 643.44 13.8099 643.31 14.4599 643.13C17.5599 642.27 22.6899 640.16 28.6999 637.45C44.9999 630.11 67.6799 618.44 71.8899 616.26L141.58 787.97L91.7599 899.71C88.4399 888.79 70.6399 830.22 52.6999 771.68C42.7499 739.23 32.7699 706.8 25.1898 682.49C21.3998 670.34 18.2098 660.22 15.9198 653.15C14.7798 649.61 13.8599 646.84 13.2099 644.95C13.0199 644.39 12.8398 643.91 12.6998 643.5C12.7198 643.5 12.7298 643.5 12.7498 643.5ZM302.78 977.11H302.96L302.83 976.98L448.22 962.86L506.83 957.17L507.32 958.04L411.88 1101.38L302.77 977.12L302.78 977.11ZM582.39 1188.56L415.03 1104.95L412.85 1102.46L508.11 959.4L577.55 1081.53L578.58 1104.32L582.39 1188.57V1188.56ZM508.98 958.09L509.42 957.43L509.68 956.89L721.48 936.32L783.82 943.04L578.48 1080.32L508.98 958.09ZM785.73 943.46L786.07 943.81L786.09 943.75L808.95 964.82L835.42 1000.54L835.72 1001.12L836.07 1001.81L845.93 1037.46L844.55 1058.99L580.89 1080.41L785.73 943.46ZM845.68 1060.33H845.76L845.84 1059.95L846.04 1059.69L1010.39 941.15L814.84 1144.86L845.68 1060.33ZM974.46 686.45L969.6 503.73L1045.56 715.17L974.47 686.45H974.46ZM1006.31 305.52L967.58 259.79L836.96 143.47L835.78 142.62L929.02 162.75H929.04L929.7 162.95L1041.69 213.85L1035.39 254.63L1006.31 305.53V305.52ZM859.72 63.25L860.33 63.55L863.31 65.02L869.83 68.33L873.74 70.37L882.01 74.76L885.98 76.9L889.57 78.9L892.71 80.68L892.89 80.79L892.99 80.85L903.66 87.09L905.82 88.37L909.35 90.5L914.21 93.52L914.25 93.55L927.64 102.21L934.7 106.93L934.82 107.02L934.87 107.05L940.86 111.27L953.64 120.44L953.73 120.51L954.11 120.8L985.79 147.28L994.27 155.38L994.7 155.81L996.78 157.89L1040.1 211.58L930.25 161.65L929.49 161.43L929.45 161.42H929.43L833.92 140.8L857.33 108.44L857.39 108.34L858.17 107L866.98 83.81L867.03 83.26L867.08 82.66V82.54L863.58 68.28L863.25 67.8L863.03 67.48L862.99 67.42L862.89 67.32L857.88 62.37L859.78 63.28L859.72 63.25ZM695.08 10.33L698.57 10.92L712.03 13.42L713.86 13.77L724.18 15.93L724.42 15.98L725.3 16.17L725.73 16.27L734.34 18.28L743.16 20.4L755.91 23.79L768.67 27.46L781.04 31.34L782.76 31.89L788.35 33.74L793.38 35.48L796.51 36.61L808.68 41.09L817 44.29H817.03L817.37 44.44L817.47 44.48L824.03 47.17L830.63 49.9L840.48 54.2L840.81 54.35L848.42 57.82L848.74 58.02L855.51 62.14L861.87 68.3L862.06 68.56L862.24 68.82L865.63 82.61L865.59 83.09L865.56 83.44L856.85 106.34L856.13 107.58L856.11 107.62L832.86 139.75L827.83 127.07V127.05L827.76 126.9L827.33 125.9L827.31 125.84L784.15 60.17L783.66 59.68L781.76 57.8L781.01 57.07L779.24 55.38L778.44 54.63L776.58 52.92L776.19 52.57L776.12 52.5L775.79 52.34L690.37 9.55997L695.15 10.32L695.08 10.33ZM607.43 2.31998L608.58 2.32997L609.85 2.35997L625.43 2.89996L641.19 3.84998L651.76 4.77997L656.56 5.21997L659.22 5.47997L659.92 5.54997L660.84 5.63997L662.94 5.85997L685.07 9.59998L775.26 53.66L775.57 53.94L777.43 55.65L778.23 56.39L780 58.07L780.75 58.79L782.65 60.67L783.04 61.06L826.05 126.51L826.45 127.45L826.51 127.6L831.12 139.22L830.87 139.04L831.03 139.37L830.56 139.08L829.83 137.55L829.92 138.69L607.43 2.30997H607.45L607.43 2.31998ZM606.11 3.16997L780.28 109.93L603.33 3.06998L606.11 3.16997ZM529.49 6.10997L533.44 5.69997L551.54 4.01997L554.35 3.78996L564.74 3.10997H564.84L565.18 3.08997L572.26 2.76997L577.46 2.54997L578.01 2.52997L579.49 2.47997H579.94L600.7 3.08997L822.21 136.86L515.12 7.94997L529.52 6.08997L529.49 6.10997ZM491.63 11.72L499.47 10.33L512.03 8.37997L512.33 8.33997L751.6 108.78L823.22 138.85L585.57 85.66L447.34 54.72L474.25 24.23L484.07 13.1L491.63 11.71V11.72ZM436.3 24.46L447.36 21.42H447.38L459.97 18.31L461.36 17.97L472.46 15.48L472.63 15.45L481.79 13.58L471.53 25.21L446.08 54.05L441.44 47.8L440.66 46.75L440.5 46.53L430.04 32.08L429.94 31.94L429.62 31.47L429.46 31.24L429.09 30.68L427.39 27.05L436.33 24.48L436.3 24.46ZM387.61 42.79L388.87 42.07L389.21 41.88L392.96 39.84L393.14 39.75L394.66 38.96L395.07 38.75L396.39 38.09L396.54 38.02H396.57L409.28 32.69L409.43 32.64L409.52 32.61L415.94 30.54L422.54 28.45L423.08 28.29L426 27.43L427.84 31.35L427.9 31.45L428.28 32.02L428.43 32.26L428.75 32.74L428.86 32.9H428.87L439.34 47.37L439.5 47.59L440.28 48.64L444.31 54.07L443.8 53.96L443.99 54.15L384.05 44.88L387.6 42.8L387.61 42.79ZM382.48 46.05L444.69 55.67L377.62 139.06L338.55 187.64L382.48 46.05ZM306.56 80.48L307.1 80.2L307.89 79.78L380.85 46.55L336.4 189.81L301.3 164.83L287.75 123.44L278.76 95.99L306.57 80.48H306.56ZM300.1 165.71L326.17 184.27L335.27 190.74L275.82 211.79L151.28 268.05L197.84 180.85L198.28 180.2L201.78 175.19L202.24 174.55L239.65 136.04L277.6 96.97L300.1 165.7V165.71ZM201.15 173.66L200.63 174.39L197.13 179.41L196.67 180.09L196.65 180.12L149.91 267.65L149.14 264.81L147.63 230.19L154.56 208.81L164.24 191.89L267.83 105.05L201.17 173.67L201.15 173.66ZM92.6098 281.65L99.4398 271.03L100.55 269.33L106.46 260.56L113.76 250.18L114.63 248.96L121.25 239.97L121.28 239.93L126.82 232.71L131.84 226.34L132.14 225.96L132.3 225.76L136.72 220.23L137.01 219.87L145.36 209.92L146.22 208.91L153.44 200.68L153.83 200.25L160.41 193.02L160.55 192.87L162.18 192.49L96.2398 298.35L95.3499 300.34L93.3199 305.01L91.2798 309.85L90.6098 311.47V311.49L79.6898 340.69V340.71L77.9398 345.96L77.2899 348.01L75.0898 355.07L75.0699 355.13V355.16L59.5498 422.9L59.2098 425.07L58.5699 429.27L57.6198 435.94L54.7098 408.8L54.6599 407.29L54.6299 406.06L89.1299 287.26L92.6098 281.64V281.65ZM32.0298 409.62L33.4799 405.42L37.3698 394.36L37.5498 393.87L38.1699 392.2V392.18L41.1999 384.24L43.4898 378.43L43.7098 377.87L44.0498 377.03L47.0399 369.62L47.0898 369.5L51.9398 358.24L52.4698 357.02L56.9199 347.23L56.9898 347.08L62.3199 335.98L63.3698 333.83L67.3398 325.99L67.8799 324.95L67.9199 324.89L73.7198 313.98L74.4199 312.69L79.7599 303.14V303.12L84.4099 295.21L86.2899 292.06L53.2299 405.89V406L53.2698 407.35L53.3298 408.89V408.92L56.7198 440.58L48.3899 436.69L48.2998 436.64L32.0498 409.63L32.0298 409.62ZM21.1999 750.36L19.3898 743.46L18.9998 741.93L16.4599 731.34L13.7999 719.16L12.9998 715.35L12.0499 710.51L11.3799 706.96L9.27985 695.01L8.87985 692.69L7.55984 684.13L7.53984 683.99L7.32985 682.5L5.69984 670.21L5.50984 668.69L4.30984 657.9L3.52985 649.32L3.10985 644.05V643.99L3.04985 643.3L2.31985 633.3V633.24L1.71985 620.87L1.65985 619.49L1.36984 608.58V608.51L1.29985 596.13V594.49L1.40985 585.91L1.45985 583.72L1.90985 571.35L1.96985 569.77L2.59985 558.9L3.56985 546.49L4.00984 541.48L4.41985 537.48L4.78984 534.1L6.28984 521.68L6.65985 518.79L7.29985 514.17L8.02985 509.28L9.97984 497.31L10.2999 495.41L12.1498 485.42V485.4L14.5798 473.57L14.7699 472.65L17.2198 461.78V461.76L20.1299 450.01L20.3398 449.18L23.2498 438.36V438.33L25.6498 430.11L27.4499 424.17L27.5798 423.74L27.9099 422.66L30.1999 415.28L30.2299 415.17L31.4598 411.42L47.2899 437.73L47.5198 437.85L47.7498 437.97H47.7698L56.5699 442.1L56.5399 442.15L56.6299 442.19L37.8098 493.16V493.18L37.7299 493.4L36.6098 496.89L10.7399 642.19C10.7399 642.19 10.7298 642.25 10.7198 642.27V642.31V642.34V642.38V642.41L10.7099 642.82L10.6198 646.98L19.1599 741.23L21.2198 750.39L21.1999 750.36ZM91.8598 914.21L85.3998 903.61L84.3998 901.95L81.6399 897.26L79.1798 892.94L71.4499 878.82L67.4499 871.24V871.23V871.22V871.2L67.3998 871.11L62.0999 860.5L61.4698 859.22L56.6198 848.98L56.4398 848.57L51.5598 837.67L51.1798 836.78L47.2798 827.61L45.6999 823.74L42.2198 814.88L41.4298 812.85L38.8199 806.03L38.7998 805.98L38.4898 805.14L38.4199 804.95L37.4298 802.25L32.6098 786.27L25.6299 763.06L25.5798 762.87L20.5699 741.02V740.98L12.0298 646.91L12.0499 645.87C12.9299 648.43 14.2398 652.44 15.8898 657.61C24.7398 685.28 43.5198 746.36 60.0798 800.52C68.3598 827.6 76.0898 852.95 81.7398 871.53C86.9198 888.53 90.3598 899.87 90.9099 901.67L90.9799 901.87C90.9799 901.9 90.9898 901.91 90.9898 901.91L91.0298 902.02L98.0598 923.71L91.8899 914.19L91.8598 914.21ZM135.35 974.9L130.03 968.23L126.03 963.11L125.56 962.5L125.5 962.43L120 955.27L119.95 955.2L112.57 945.11L112.17 944.56L105.44 934.96L104.05 932.91L103.97 932.79L103.59 932.23L100.27 925.69L92.3799 901.75L142.3 789.77L142.97 791.41L142.99 790.4L143.08 790.55L143.1 790.57L217.7 893.74L218.2 894.32L222.93 899.76L224.32 901.34L228.05 905.53L230.23 907.96L232.49 910.45L236.07 914.35L237.15 915.52L299.51 975.73L138.07 978.2L135.34 974.88L135.35 974.9ZM202.31 1044.55L193.59 1036.67L193.07 1036.19L184.59 1028.24L184.57 1028.22L184.52 1028.17L184.43 1028.08L175.85 1019.67L175.22 1019.05L167.47 1011.14L167.45 1011.12L167.4 1011.07H167.38V1011.05L161.15 1004.42L158.54 1001.63L151.08 993.37L151.02 993.31L144.63 985.91L139.26 979.6L198.45 978.69L299.85 977.14L299.76 977.26L300.75 977.16L301.02 977.91L301.29 977.54L411.02 1102.5L380.23 1137.77L218.11 1057.98L214.89 1055.31L202.3 1044.53L202.31 1044.55ZM576.3 1189.31L572.33 1189.43L569.6 1189.49L565.65 1189.55L562.95 1189.57H558.88H556.33L551.88 1189.48L549.72 1189.44L543.12 1189.23L535.07 1188.84L533.21 1188.73L525.28 1188.18L524.37 1188.1L517.14 1187.45L515.38 1187.28L507.58 1186.42L507.47 1186.4L505.67 1186.18L501.13 1185.6L498.8 1185.28L494.49 1184.66L492.24 1184.32L487.39 1183.54L485.79 1183.28L479.38 1182.14L477.93 1181.86L472.99 1180.9L470.78 1180.45L466.53 1179.56L465.87 1179.42L464.22 1179.06L459.84 1178.06L457.83 1177.59L451.53 1176.05L438.72 1172.6L431.63 1170.62L431.11 1170.47L419.61 1167L419.14 1166.85L414.92 1165.5L405.62 1162.43L393.38 1158.12L381.41 1153.59L380.01 1153.05L369.56 1148.84H369.53V1148.83L362.02 1145.62L353.73 1141.96L346.65 1138.78L346.35 1138.64L335 1133.21L334.45 1132.95L323.98 1127.68H323.96L323.76 1127.58L323.68 1127.54L312.63 1121.68L311.25 1120.94L301.81 1115.68L301.63 1115.58L291 1109.37L290.3 1108.96L283.51 1104.85L280.43 1102.93L270.05 1096.28L268.52 1095.29L263.89 1092.22L259.81 1089.44L249.8 1082.43L248.57 1081.56L239.89 1075.2H239.88L230.23 1067.83L228.93 1066.83L222.77 1061.94L380.03 1139.34L380.09 1139.36L380.67 1139.52L383.63 1140.33H383.64L578.16 1189.25L576.16 1189.32L576.3 1189.31ZM809.58 1155.12C808.7 1155.37 807.81 1155.62 806.92 1155.86C806.92 1155.86 806.91 1155.86 806.9 1155.86C753.49 1170.58 671.01 1181.26 598.87 1187.98L592.15 1188.5L590.37 1188.61L585.56 1188.91L583.82 1189L580.34 1112.07L578.98 1081.98L843.9 1060.46L843.01 1061.87L843.83 1061.28L812.41 1147.38L808.86 1151.08L582.98 1082.25L582.57 1083.6L809.27 1152.68L811.21 1150.66L809.58 1155.14V1155.12ZM907.7 1107.03L902.93 1109.87L900.11 1111.55L892.06 1116.23L887.16 1119.02L886.71 1119.27L881.15 1122.32L880.9 1122.45L864 1131.21L849.03 1138.44L848.77 1138.56L833.22 1145.53L833.07 1145.6L827.74 1147.85L821.62 1150.34L821.59 1150.27L819.66 1151.08L813.73 1153.49L811.29 1154.47L813.6 1148.14L1014.92 938.41L990.47 1041.12L909.18 1106.13L907.68 1107.04L907.7 1107.03ZM1092.49 929.62L1088.26 935.9L1080.96 946.27L1079.95 947.7L1074.79 954.73L1073.48 956.47L1073.46 956.49L1065.64 966.67L1064.59 968.02L1059.47 974.42L1057.68 976.6L1057.63 976.66L1051.41 984.08L1048.37 987.68L1040.87 996.22L1031.96 1005.94L1030.2 1007.83L1024.31 1013.98L1022.93 1015.39L1013.43 1024.87L1012.4 1025.89L1005.29 1032.69L1003.81 1034.08L999.85 1037.7L992.74 1044.16L986.04 1050.02L983.37 1052.3L972.44 1061.36L971.54 1062.1L961.39 1070.11L954.36 1075.4L944.27 1082.84L944.04 1083.01L939.3 1086.35L938.48 1086.92L937.55 1087.57L925.51 1095.71L920.13 1099.16L991.7 1041.92L1016.54 937.61L1016.64 937.74L1016.81 936.64L1077.09 923.15L1079.1 922.87L1079.62 922.8L1081.08 922.61L1081.72 922.53L1083.09 922.38L1083.73 922.31L1085.13 922.18L1085.53 922.15L1086.81 922.06L1087.23 922.03L1090.01 921.93H1090.29H1091.41H1091.56L1092.57 921.97L1093.12 922.01L1093.36 922.03L1096.67 922.82V923.03L1096.62 923.39L1096.16 924.11L1095.94 924.44L1092.5 929.61L1092.49 929.62ZM1183.08 703.51L1182.5 707.94L1180.26 722.53L1178.91 728.61L1177.52 734.71L1174.61 746.48L1174.24 747.93L1171.49 758.14L1168.1 769.78L1167.83 770.7L1164.5 781.35L1160.63 792.86L1160.3 793.84L1156.55 804.3L1153.05 813.46L1150.97 818.71L1147.68 826.84L1147.62 826.98V827.01L1144.23 834.89L1142.25 839.47L1137.81 849.22L1137.73 849.4L1132.39 860.53L1127.33 870.6L1127.03 871.17L1125.32 874.41L1121.01 882.51L1119.87 884.62L1115.34 892.72L1114.98 893.34L1108.64 904.17L1107.89 905.44L1102.11 914.85L1097.96 921.34L1097.75 921.66L1093.58 920.66L1093.25 920.63H1093.24L1092.66 920.58L1091.61 920.53H1091.59H1091.43H1090.31H1090.3H1090.01H1089.99L1087.15 920.64L1086.74 920.67L1085.46 920.77L1085.06 920.8L1083.65 920.93L1083.01 921L1081.64 921.15L1081 921.23L1079.54 921.42L1079.02 921.49L1077.01 921.78H1076.99H1076.97L1018.41 934.89L1088.69 860.72L1145.5 783.77L1146.07 782.83L1147.19 780.99L1182.79 703.28L1183.45 700.95L1183.16 703.53L1183.08 703.51ZM1181.39 702.77L1145.87 780.31L1144.8 782.07L1144.26 782.95L1087.53 859.79L1017.27 933.94L1049.28 721.42L1048.02 717.91L1144.51 775.93L1145.24 774.72L1047.53 715.97L1047.29 715.87L969.45 499.2L969.43 499.03L1129.63 575.95L1184.8 682.71L1184.33 692.37L1181.39 702.77ZM1185.34 671.77L1184.94 679.9L1130.66 574.88L969.34 497.42L969.78 496.35L969.11 496.6L969.01 495.82L974.41 478.45L975.22 475.77V475.75L975.24 475.7L1006.88 308.06L1021.69 320.75L1152.22 489.48L1185.34 671.77ZM1189.77 574.79L1189.79 575.17L1189.91 577.66L1185.64 665.55L1153.54 488.88L1022.72 319.76L1007.33 306.57L1036.74 255.08L1042.9 215.23L1112.56 313.76L1112.98 314.49L1113.79 315.93L1164.6 433.34L1189.78 574.78L1189.77 574.79Z" fill="#CBF2F7"/>
</g>
</svg>
