<svg width="337" height="67" viewBox="0 0 337 67" fill="none" xmlns="http://www.w3.org/2000/svg">
<g clip-path="url(#clip0_95_10)">
<path d="M75.8056 38.3003C75.2265 14.608 103.581 2.48944 120.417 18.7929C125.608 23.7406 128.803 30.9114 128.975 38.3221C129.039 40.2183 127.559 41.8312 125.693 41.8748C123.763 41.9184 122.176 40.2837 122.262 38.3221C122.476 32.7205 120.417 26.9882 116.514 22.7815C102.873 7.96024 78.2721 18.139 77.8003 38.3003C77.7788 39.5863 75.8485 39.5863 75.8056 38.3003Z" fill="url(#paint0_linear_95_10)"/>
<path fill-rule="evenodd" clip-rule="evenodd" d="M107.841 37.036L108.377 37.4719C111.723 40.1092 113.654 41.9619 114.275 49.3943C114.275 50.4406 113.975 52.0753 111.852 53.3176C109.6 54.6472 105.482 55.3011 101.407 55.3011C97.3317 55.3011 93.2352 54.6254 90.9831 53.3176C88.8598 52.0753 88.5381 50.4406 88.5381 49.5905C89.1815 41.9619 91.0904 40.1092 94.4362 37.4719L94.9724 37.036C93.6641 35.5103 92.8277 33.5269 92.8277 31.3255C92.8277 26.5085 96.6668 22.6071 101.407 22.6071C106.147 22.6071 109.986 26.5085 109.986 31.3255C109.986 33.5269 109.171 35.5103 107.841 37.036ZM103.552 40.349C101.214 39.7169 99.2619 40.349 99.2619 40.349L100.549 42.3106L98.404 48.1084L101.407 51.0944L104.409 48.1084L102.265 42.3106L103.552 40.349Z" fill="#475366"/>
</g>
<path d="M148.695 12.5189H141.954V38.4465H148.695V12.5189Z" fill="#475366"/>
<path d="M165.12 19.2971C162.601 19.2971 159.749 20.4083 157.194 22.3714L156.86 19.9268H151.489V38.4465H158.082V26.0013C159.49 24.9641 160.749 24.4456 162.046 24.4456C163.305 24.4456 163.898 25.1123 163.898 26.4087V38.4465H170.491V24.6308C170.491 20.9268 168.231 19.2971 165.12 19.2971Z" fill="#475366"/>
<path d="M181.025 11.8892C176.839 11.8892 172.432 13.3338 172.432 20.2601C172.432 24.1863 173.987 26.1124 177.025 26.9643L184.247 29.0755C185.322 29.4089 185.877 29.9645 185.877 31.2979C185.877 33.1128 184.877 33.3721 182.803 33.3721C180.543 33.3721 176.469 33.0387 172.469 32.4461L171.95 37.6316C175.543 38.2243 180.988 39.1503 184.358 39.0762C188.692 39.0021 192.841 37.3724 192.803 31.2979C192.803 26.4828 190.692 24.3715 187.766 23.4826L181.21 21.5195C179.988 21.1861 179.543 20.8157 179.543 19.7786C179.543 18.0007 180.877 17.7044 182.988 17.7044C184.766 17.7044 188.396 17.9267 191.063 18.1118L191.655 12.9263C188.322 12.3337 184.358 11.8892 181.025 11.8892Z" fill="#475366"/>
<path d="M203.943 19.2971C197.128 19.2971 194.054 21.7047 194.054 28.7792C194.054 36.4464 196.165 39.0762 203.943 39.0762C211.61 39.0762 213.61 35.9649 213.61 28.8533C213.61 21.8899 210.092 19.2971 203.943 19.2971ZM203.869 24.4826C205.795 24.4826 206.869 25.2975 206.869 29.0014C206.869 32.9276 206.314 33.8907 203.869 33.8907C201.387 33.8907 200.795 33.1128 200.795 28.9644C200.795 25.2234 201.684 24.4826 203.869 24.4826Z" fill="#475366"/>
<path d="M224.85 19.2971C218.035 19.2971 214.961 21.7047 214.961 28.7792C214.961 36.4464 217.072 39.0762 224.85 39.0762C227.85 39.0762 229.406 38.7428 231.036 38.4095L229.962 33.5943C228.628 33.7425 227.332 33.9277 224.998 33.9277C222.331 33.9277 221.702 32.7795 221.702 28.9644C221.702 25.5568 222.628 24.4456 224.998 24.4456C227.11 24.4456 228.443 24.6308 229.776 24.816L230.591 19.9638C229.036 19.5193 227.295 19.2971 224.85 19.2971Z" fill="#475366"/>
<path d="M239.734 12.5189H232.771V18.1489H239.734V12.5189ZM239.549 19.9268H232.956V38.4465H239.549V19.9268Z" fill="#475366"/>
<path d="M251.4 19.2971C244.585 19.2971 241.51 21.7047 241.51 28.7792C241.51 36.4464 243.622 39.0762 251.4 39.0762C259.067 39.0762 261.067 35.9649 261.067 28.8533C261.067 21.8899 257.548 19.2971 251.4 19.2971ZM251.326 24.4826C253.252 24.4826 254.326 25.2975 254.326 29.0014C254.326 32.9276 253.77 33.8907 251.326 33.8907C248.844 33.8907 248.252 33.1128 248.252 28.9644C248.252 25.2234 249.14 24.4826 251.326 24.4826Z" fill="#475366"/>
<path d="M141.954 54.6135V46.1955H145.275C145.914 46.1955 146.458 46.3174 146.907 46.5613C147.357 46.8024 147.699 47.1381 147.935 47.5683C148.173 47.9958 148.292 48.4891 148.292 49.0481C148.292 49.6071 148.172 50.1003 147.931 50.5278C147.689 50.9553 147.34 51.2882 146.882 51.5266C146.428 51.765 145.877 51.8842 145.23 51.8842H143.113V50.4579H144.942C145.285 50.4579 145.567 50.399 145.789 50.2812C146.014 50.1606 146.181 49.9948 146.291 49.7838C146.403 49.5701 146.459 49.3248 146.459 49.0481C146.459 48.7686 146.403 48.5247 146.291 48.3164C146.181 48.1054 146.014 47.9424 145.789 47.8273C145.564 47.7095 145.279 47.6505 144.934 47.6505H143.734V54.6135H141.954Z" fill="#1EBEC9"/>
<path d="M168.759 50.4045C168.759 51.3225 168.585 52.1035 168.237 52.7474C167.892 53.3914 167.42 53.8833 166.823 54.223C166.228 54.5601 165.56 54.7286 164.817 54.7286C164.069 54.7286 163.398 54.5587 162.803 54.2189C162.208 53.8791 161.738 53.3873 161.393 52.7433C161.048 52.0993 160.875 51.3197 160.875 50.4045C160.875 49.4865 161.048 48.7055 161.393 48.0616C161.738 47.4176 162.208 46.9271 162.803 46.5901C163.398 46.2503 164.069 46.0804 164.817 46.0804C165.56 46.0804 166.228 46.2503 166.823 46.5901C167.42 46.9271 167.892 47.4176 168.237 48.0616C168.585 48.7055 168.759 49.4865 168.759 50.4045ZM166.954 50.4045C166.954 49.8099 166.865 49.3084 166.687 48.9001C166.512 48.4918 166.264 48.1822 165.943 47.9712C165.623 47.7602 165.247 47.6547 164.817 47.6547C164.387 47.6547 164.011 47.7602 163.691 47.9712C163.37 48.1822 163.121 48.4918 162.943 48.9001C162.767 49.3084 162.68 49.8099 162.68 50.4045C162.68 50.9991 162.767 51.5006 162.943 51.9089C163.121 52.3172 163.37 52.6268 163.691 52.8378C164.011 53.0488 164.387 53.1543 164.817 53.1543C165.247 53.1543 165.623 53.0488 165.943 52.8378C166.264 52.6268 166.512 52.3172 166.687 51.9089C166.865 51.5006 166.954 50.9991 166.954 50.4045Z" fill="#1EBEC9"/>
<path d="M181.652 54.6135V46.1955H183.432V53.1461H187.041V54.6135H181.652Z" fill="#1EBEC9"/>
<path d="M201.574 46.1955V54.6135H199.794V46.1955H201.574Z" fill="#1EBEC9"/>
<path d="M214.293 47.6629V46.1955H221.206V47.6629H218.629V54.6135H216.87V47.6629H214.293Z" fill="#1EBEC9"/>
<path d="M235.7 46.1955V54.6135H233.92V46.1955H235.7Z" fill="#1EBEC9"/>
<path d="M248.739 54.6135V46.1955H250.518V49.9071H250.629L253.659 46.1955H255.792L252.668 49.9647L255.829 54.6135H253.7L251.394 51.1526L250.518 52.2213V54.6135H248.739Z" fill="#1EBEC9"/>
<defs>
<linearGradient id="paint0_linear_95_10" x1="75.8056" y1="26.5958" x2="128.953" y2="26.5958" gradientUnits="userSpaceOnUse">
<stop stop-color="#F29214"/>
<stop offset="1" stop-color="#D61212"/>
</linearGradient>
<clipPath id="clip0_95_10">
<rect width="53.1478" height="43.9843" fill="white" transform="translate(75.8057 11.3167)"/>
</clipPath>
</defs>
</svg>
